<?xml version="1.0" encoding="UTF-8"?>
<svg id="Layer_1" data-name="Layer 1" xmlns="http://www.w3.org/2000/svg" viewBox="0 0 56.17 56.17">
  <defs>
    <style>
      .cls-1 {
        fill: #1c1a17;
      }
    </style>
  </defs>
  <path class="cls-1" d="M28.08,0C12.6,0,0,12.6,0,28.08s12.6,28.08,28.08,28.08,28.08-12.6,28.08-28.08S43.57,0,28.08,0Zm0,54.17c-14.38,0-26.08-11.7-26.08-26.08S13.7,2,28.08,2s26.08,11.7,26.08,26.08-11.7,26.08-26.08,26.08Z"/>
  <path class="cls-1" d="M38.92,27.08H19.66l9.13-9.13c.39-.39,.39-1.02,0-1.41s-1.02-.39-1.41,0l-10.83,10.83c-.09,.09-.16,.2-.22,.32-.05,.12-.08,.25-.08,.39s.03,.26,.08,.38c.05,.12,.12,.23,.22,.32l10.83,10.83c.2,.2,.45,.29,.71,.29s.51-.1,.71-.29c.39-.39,.39-1.02,0-1.41l-9.13-9.13h19.25c.55,0,1-.45,1-1s-.45-1-1-1Z"/>
</svg>